# xmcd
#
# Track frame offsets: 
#        150
#        27835
#        52705
#        75982
#        88550
#        106462
#        114852
#        125892
#        148930
#        161380
#        185055
#        199952
#        212362
#        243575
#        262735
#        281872
#        296225
#
# Disc length: 4079 seconds
#
# Revision: 0
# Processed by: cddbd v1.5.2PL0 Copyright (c) Steve Scherf et al.
# Submitted via: ExactAudioCopy v0.95b3
#
DISCID=f40fed11
DTITLE=Genesis  - Genesis In The Beginning - Vol.3 - Definitive Editio
DTITLE=n Digital Remastered and Bonus Tracks  FLAC
DYEAR=1900
DGENRE=
TTITLE0=The Carpet Crawlers-Demo Take 1 - 2
TTITLE1=The Carpet Crawlers-Demo Take 3
TTITLE2=The Carpet Crawlers-Demo Take 4
TTITLE3=I Know What I Like - Long Intro
TTITLE4=THE WAITING ROOM - live-SAME AS EVIL JAM
TTITLE5=The Cinema Show-Studio Take 1
TTITLE6=The Cinema Show-Studio Take 2
TTITLE7=The Waiting Room-Sound Effects
TTITLE8=Lily Whitelilith-Demo
TTITLE9=The Waiting Room-Demo Take 1
TTITLE10=Anyway - Demo
TTITLE11=THE SUPERNATURAL ANAESTHETISIT - DEMO w.PHIL ON VOCALS
TTITLE12=The Lamia - Demo
TTITLE13=Riding The Scree - Demo
TTITLE14=Silver Song-Demo,Phil On Vocals
TTITLE15=The Cinema Show-Studio Take,No Lyrics
TTITLE16=Marymary-Taken From Acetate,November 1967
EXTD=
EXTT0=
EXTT1=
EXTT2=
EXTT3=
EXTT4=
EXTT5=
EXTT6=
EXTT7=
EXTT8=
EXTT9=
EXTT10=
EXTT11=
EXTT12=
EXTT13=
EXTT14=
EXTT15=
EXTT16=
PLAYORDER=
